<?xml version="1.0" encoding="utf-8"?>
<!-- Generator: Adobe Illustrator 19.0.0, SVG Export Plug-In . SVG Version: 6.00 Build 0)  -->
<svg version="1.1" id="Layer_1" xmlns="http://www.w3.org/2000/svg" xmlns:xlink="http://www.w3.org/1999/xlink" x="0px" y="0px"
	 viewBox="-262 386.1 70.9 70.8" style="enable-background:new -262 386.1 70.9 70.8;" xml:space="preserve">
<style type="text/css">
	.st0{fill:#FFFFFF;}
	.st1{fill:#2B2B2B;}
</style>
<g id="XMLID_37_">
	<circle id="XMLID_50_" class="st0" cx="-226.6" cy="421.5" r="35.4"/>
	<g id="XMLID_38_">
		<path id="XMLID_45_" class="st1" d="M-226.6,395.5c5,0,9.8,1.4,13.9,4l-35.9,35.9c-2.6-4.1-4-8.9-4-13.9
			C-252.7,407.2-240.9,395.5-226.6,395.5 M-226.6,391.2c-16.7,0-30.3,13.6-30.3,30.3c0,7.8,3,15,7.9,20.4l42.8-42.8
			C-211.6,394.2-218.8,391.2-226.6,391.2L-226.6,391.2z"/>
		<path id="XMLID_39_" class="st1" d="M-204.6,407.6c2.6,4.1,4,8.9,4,13.9c0,14.4-11.7,26-26,26c-5,0-9.8-1.4-13.9-4L-204.6,407.6
			 M-204.2,401.1l-42.8,42.8c5.4,4.9,12.5,7.9,20.4,7.9c16.7,0,30.3-13.6,30.3-30.3C-196.2,413.7-199.2,406.5-204.2,401.1
			L-204.2,401.1z"/>
	</g>
</g>
</svg>
